<svg xmlns="http://www.w3.org/2000/svg" viewBox="0 0 100 100">
  <!-- Modern gradient background -->
  <defs>
    <linearGradient id="bgGradient" x1="0%" y1="0%" x2="100%" y2="100%">
      <stop offset="0%" style="stop-color:#3b82f6;stop-opacity:1" />
      <stop offset="100%" style="stop-color:#2563eb;stop-opacity:1" />
    </linearGradient>
    <linearGradient id="boxGradient" x1="0%" y1="0%" x2="100%" y2="100%">
      <stop offset="0%" style="stop-color:#ffffff;stop-opacity:1" />
      <stop offset="100%" style="stop-color:#e0e7ff;stop-opacity:1" />
    </linearGradient>
  </defs>

  <!-- Rounded square background -->
  <rect width="100" height="100" rx="20" fill="url(#bgGradient)"/>

  <!-- Warehouse box stack (3D effect) -->
  <!-- Back box -->
  <path d="M 30 35 L 50 25 L 70 35 L 70 50 L 50 60 L 30 50 Z"
        fill="#1e40af" opacity="0.6"/>

  <!-- Middle box -->
  <path d="M 25 45 L 50 32 L 75 45 L 75 62 L 50 75 L 25 62 Z"
        fill="url(#boxGradient)" stroke="#2563eb" stroke-width="2"/>

  <!-- Box details (lines) -->
  <line x1="50" y1="32" x2="50" y2="75" stroke="#3b82f6" stroke-width="2"/>
  <line x1="25" y1="45" x2="50" y2="32" stroke="#3b82f6" stroke-width="1.5"/>
  <line x1="75" y1="45" x2="50" y2="32" stroke="#3b82f6" stroke-width="1.5"/>

  <!-- Swift arrow (speed indicator) -->
  <path d="M 60 55 L 80 55 L 75 50 M 80 55 L 75 60"
        stroke="#fbbf24" stroke-width="3" stroke-linecap="round"
        stroke-linejoin="round" fill="none"/>

  <!-- Small accent boxes (indicating multiple items) -->
  <rect x="20" y="70" width="8" height="8" rx="1" fill="#10b981" opacity="0.8"/>
  <rect x="32" y="70" width="8" height="8" rx="1" fill="#f59e0b" opacity="0.8"/>
  <rect x="44" y="70" width="8" height="8" rx="1" fill="#8b5cf6" opacity="0.8"/>
</svg>
